<svg width="24" height="24" viewBox="0 0 24 24" fill="none" xmlns="http://www.w3.org/2000/svg">
<rect width="24" height="24" rx="6" fill="black"/>
<path d="M6.6227 12.38C7.4127 12.2 7.9727 11.67 7.9727 10.8C7.9727 9.69 7.0527 8.94 5.5127 8.94C4.0627 8.94 3.1027 9.72 3.0827 11.03H4.1727C4.1927 10.3 4.7627 9.86 5.5527 9.86C6.3027 9.86 6.8427 10.24 6.8427 10.88C6.8427 11.52 6.3727 11.98 5.4227 11.98H4.8527V12.9H5.4927C6.4827 12.9 7.0127 13.32 7.0127 13.97C7.0127 14.69 6.3927 15.14 5.5827 15.14C4.6727 15.14 4.0227 14.63 4.0127 13.76H2.9027C2.9027 15.2 3.9227 16.06 5.5127 16.06C7.1127 16.06 8.1427 15.25 8.1427 14.05C8.1427 13.06 7.4027 12.54 6.6227 12.38ZM9.20738 16H11.4374C13.6074 16 14.9674 14.57 14.9674 12.5C14.9674 10.42 13.6074 9 11.4374 9H9.20738V16ZM10.3574 15V10H11.4374C12.9674 10 13.7874 11 13.7874 12.5C13.7874 14 12.9674 15 11.4374 15H10.3574ZM15.715 13.7C15.745 15.08 16.835 16.06 18.525 16.06C20.035 16.06 21.115 15.17 21.115 13.93C21.125 12.55 19.995 12.18 18.835 11.97C17.735 11.78 17.015 11.63 17.015 10.91C17.015 10.25 17.565 9.91 18.355 9.91C19.195 9.91 19.785 10.39 19.865 11.1H20.995C20.935 9.84 19.885 8.94 18.355 8.94C16.885 8.94 15.865 9.78 15.865 10.99C15.865 12.38 16.965 12.75 18.125 12.95C19.235 13.15 19.965 13.31 19.965 14.05C19.965 14.72 19.365 15.09 18.535 15.09C17.555 15.09 16.905 14.54 16.845 13.72L15.715 13.7Z" fill="white"/>
</svg>
