<svg width="24" height="24" viewBox="0 0 24 24" fill="none" xmlns="http://www.w3.org/2000/svg">
<rect width="24" height="24" rx="6" fill="#BEE4FE"/>
<g clip-path="url(#clip0)">
<path d="M16.7659 8.11137C16.6781 8.05968 16.5701 8.05608 16.4791 8.10178C16.3883 8.1476 16.3268 8.23639 16.3159 8.33758C16.3051 8.43599 16.2883 8.53437 16.2673 8.63759C15.6799 11.3034 14.5003 12.6 12.6601 12.6H9.96014C9.81777 12.6002 9.6952 12.7005 9.66674 12.84L8.76674 17.0586L8.60595 18.1326C8.51351 18.621 8.83447 19.0919 9.32283 19.1843C9.37669 19.1945 9.43134 19.1997 9.48615 19.2H11.2921C11.7061 19.2013 12.067 18.9187 12.1651 18.5166L12.8947 15.6H14.4601C16.3075 15.6 17.5843 14.127 18.0553 11.4522C18.3662 10.1785 17.8519 8.84591 16.7659 8.11137Z" fill="#03A9F4"/>
<path d="M16.2001 5.86921C15.6073 5.19677 14.7566 4.80803 13.8601 4.80001H8.89214C8.14866 4.79602 7.51568 5.33998 7.40776 6.07559L5.86516 16.3662C5.79128 16.8577 6.12982 17.3161 6.62136 17.39C6.66597 17.3967 6.71105 17.4 6.75616 17.4H9.06016C9.20253 17.3997 9.3251 17.2995 9.35356 17.16L10.2026 13.2H12.6626C14.7974 13.2 16.208 11.7078 16.856 8.76C16.882 8.6425 16.902 8.52375 16.916 8.40419C17.0664 7.49477 16.804 6.56561 16.2001 5.86921Z" fill="#283593"/>
</g>
<defs>
<clipPath id="clip0">
<rect width="14.4" height="14.4" fill="white" transform="translate(4.79999 4.79999)"/>
</clipPath>
</defs>
</svg>
