<svg width="24" height="24" viewBox="0 0 24 24" fill="none" xmlns="http://www.w3.org/2000/svg">
<rect width="24" height="24" rx="6" fill="#FF8C78"/>
<path d="M16.1683 9.14527H13.4172C12.635 9.14527 12 8.55662 12 7.82894V6.82207C12 5.53938 10.881 4.5 9.5 4.5C8.11902 4.5 7 5.53938 7 6.82207C7 8.10477 8.11902 9.14415 9.5 9.14415H10.584C11.3662 9.14415 12.0012 9.73392 12.0012 10.4605V12.8599C12.0012 13.5865 11.3662 14.1762 10.584 14.1762H9.5C8.11902 14.1762 7 15.2156 7 16.4983V18.1779C7 19.4606 8.11902 20.5 9.5 20.5C10.881 20.5 12 19.4606 12 18.1779V16.4983V15.4915C12 14.7649 12.6337 14.1751 13.4172 14.1751H16.1671C16.627 14.1751 17 13.8287 17 13.4015V9.91892C17.0012 9.49173 16.6282 9.14527 16.1683 9.14527Z" fill="#020203"/>
</svg>
