<svg width="24" height="24" viewBox="0 0 24 24" fill="none" xmlns="http://www.w3.org/2000/svg">
<rect x="1" y="1" width="22" height="22" rx="5" fill="white" stroke="black" stroke-width="2"/>
<path d="M9.91593 18.4C7.77278 18.3876 6 14.0127 6 11.7847C6 8.14523 8.73023 7.34845 9.78245 7.34845C10.2566 7.34845 10.763 7.53466 11.2096 7.69945C11.5219 7.81439 11.8449 7.93305 12.0245 7.93305C12.132 7.93305 12.3854 7.83211 12.6091 7.74355C13.0862 7.55362 13.6798 7.31757 14.3712 7.31757C14.3724 7.31757 14.374 7.31757 14.3753 7.31757C14.8915 7.31757 16.4566 7.43085 17.3976 8.84397L17.618 9.17519L17.3008 9.41457C16.8476 9.75651 16.0207 10.3803 16.0207 11.6158C16.0207 13.0792 16.9572 13.642 17.4071 13.9127C17.6057 14.0321 17.8112 14.1553 17.8112 14.4247C17.8112 14.6007 16.4072 18.3782 14.3683 18.3782C13.8693 18.3782 13.5167 18.2282 13.2056 18.096C12.8909 17.9621 12.6194 17.8467 12.1707 17.8467C11.9433 17.8467 11.6557 17.9542 11.3513 18.0684C10.9352 18.2236 10.4643 18.4 9.92993 18.4H9.91593Z" fill="black"/>
<path d="M14.5871 4C14.6402 5.91464 13.271 7.24292 11.9033 7.15962C11.6779 5.63167 13.2708 4 14.5871 4Z" fill="black"/>
</svg>
