<svg width="24" height="24" viewBox="0 0 24 24" fill="none" xmlns="http://www.w3.org/2000/svg">
<rect width="24" height="24" rx="6" fill="#231F20"/>
<path fill-rule="evenodd" clip-rule="evenodd" d="M12.4925 10.2788V17.944C12.4925 17.944 8.04811 17.1421 8.04811 14.0951C8.04811 11.6651 11.3382 10.5942 12.4925 10.2788ZM12.4925 10.1358C9.82131 9.94248 3.76406 11.1946 3.76406 13.9348C3.76406 15.7217 6.97135 18.3334 12.1947 18.4021C12.4009 18.4021 18.3344 18.1731 18.2427 11.8041C18.1659 6.45515 14.1622 5.51822 12.882 5.35511V5.02915C17.9858 5.35285 22 8.42249 22 12.1479C22 16.0883 17.5097 19.2956 11.9885 19.2956C6.46735 19.2956 2 16.0883 2 12.1479C2 8.20761 6.46735 5 11.9885 5C12.1576 5 12.3256 5.00326 12.4925 5.00929V10.1358" fill="white"/>
</svg>
