<svg width="24" height="24" viewBox="0 0 24 24" fill="none" xmlns="http://www.w3.org/2000/svg">
<rect width="24" height="24" rx="6" fill="#032550"/>
<path d="M8.09333 16.2051C5.66667 16.2051 4 14.4752 4 12.1231V12.1094C4 9.85299 5.72667 8 8.08 8C9.48 8 10.32 8.38291 11.1333 9.09402L10.0533 10.4274C9.44667 9.92137 8.92 9.62051 8.01333 9.62051C6.76667 9.62051 5.77333 10.7487 5.77333 12.0957V12.1094C5.78667 13.5521 6.76667 14.6188 8.14 14.6188C8.76 14.6188 9.32 14.4615 9.76 14.1402V13.012H8.03333V11.5077H11.4133V14.9538C10.6133 15.6308 9.50667 16.2051 8.09333 16.2051Z" fill="white"/>
<path d="M16.28 16.2051C14.1 16.2051 12.48 14.3932 12.48 12.1094C12.48 9.83932 14.0866 8 16.3133 8C17.6933 8 18.5066 8.50598 19.2666 9.25128L18.6733 9.90085C18.04 9.26496 17.3266 8.80684 16.2933 8.80684C14.6133 8.80684 13.3533 10.2222 13.3533 12.0752C13.3533 13.9145 14.6266 15.3573 16.2933 15.3573C17.34 15.3573 18.02 14.947 18.7333 14.2154L19.2933 14.7897C18.5266 15.6513 17.66 16.2051 16.28 16.2051Z" fill="white"/>
</svg>
