<svg width="24" height="24" viewBox="0 0 24 24" fill="none" xmlns="http://www.w3.org/2000/svg">
<rect x="1" y="1" width="22" height="22" rx="5" fill="white" stroke="#E0E0E0" stroke-width="2"/>
<path fill-rule="evenodd" clip-rule="evenodd" d="M19 12.2535C19 11.7595 18.9603 11.2655 18.8808 10.7816H12.1327V13.5741H15.9987C15.8397 14.4713 15.3229 15.2778 14.5676 15.7818V17.5964H16.8732C18.2248 16.3363 19 14.4713 19 12.2535Z" fill="#4285F4"/>
<path fill-rule="evenodd" clip-rule="evenodd" d="M12.1326 19.3507C14.0606 19.3507 15.6905 18.7055 16.8731 17.5966L14.5675 15.782C13.9215 16.2256 13.0966 16.4776 12.1326 16.4776C10.2642 16.4776 8.68403 15.1973 8.11755 13.4835H5.74231V15.3586C6.95477 17.8083 9.4294 19.3507 12.1326 19.3507Z" fill="#34A853"/>
<path fill-rule="evenodd" clip-rule="evenodd" d="M8.11751 13.4834C7.81937 12.5862 7.81937 11.6083 8.11751 10.701V8.836H5.74228C4.71864 10.8825 4.71864 13.3019 5.74228 15.3484L8.11751 13.4834Z" fill="#FBBC04"/>
<path fill-rule="evenodd" clip-rule="evenodd" d="M12.1326 7.70693C13.1562 7.68676 14.1401 8.07993 14.8755 8.79568L16.9228 6.71898C15.6209 5.48908 13.9115 4.81365 12.1326 4.83381C9.42939 4.83381 6.95477 6.3863 5.74231 8.83601L8.11755 10.7111C8.68403 8.98722 10.2642 7.70693 12.1326 7.70693Z" fill="#EA4335"/>
</svg>
