<?xml version="1.0" encoding="UTF-8"?>
<svg xmlns="http://www.w3.org/2000/svg" xmlns:xlink="http://www.w3.org/1999/xlink" width="25px" height="25px" viewBox="0 0 25 25" version="1.1">
<g id="surface1">
<path style=" stroke:none;fill-rule:evenodd;fill:rgb(10.588235%,21.568627%,44.313725%);fill-opacity:1;" d="M 1.101562 19.707031 L 23.898438 19.707031 L 23.898438 5.292969 L 1.101562 5.292969 Z M 1.101562 19.707031 "/>
<path style=" stroke:none;fill-rule:evenodd;fill:rgb(22.745098%,60.784314%,85.098039%);fill-opacity:1;" d="M 12.488281 17.09375 C 13.75 15.953125 14.546875 14.296875 14.546875 12.457031 C 14.546875 10.617188 13.75 8.960938 12.488281 7.808594 C 11.382812 6.800781 9.910156 6.1875 8.292969 6.1875 C 4.832031 6.1875 2.023438 8.996094 2.023438 12.457031 C 2.023438 15.917969 4.832031 18.714844 8.292969 18.714844 C 9.910156 18.714844 11.382812 18.101562 12.488281 17.09375 Z M 12.488281 17.09375 "/>
<path style=" stroke:none;fill-rule:evenodd;fill:rgb(22.745098%,60.784314%,85.098039%);fill-opacity:1;" d="M 12.488281 17.09375 C 13.75 15.953125 14.546875 14.296875 14.546875 12.457031 C 14.546875 10.617188 13.75 8.960938 12.488281 7.808594 Z M 12.488281 17.09375 "/>
<path style=" stroke:none;fill-rule:evenodd;fill:rgb(80%,12.941176%,19.215686%);fill-opacity:1;" d="M 16.695312 6.1875 C 15.078125 6.1875 13.605469 6.800781 12.488281 7.808594 C 12.265625 8.015625 12.058594 8.238281 11.863281 8.46875 L 13.125 8.46875 C 13.296875 8.679688 13.457031 8.910156 13.605469 9.132812 L 11.382812 9.132812 C 11.25 9.347656 11.128906 9.570312 11.015625 9.792969 L 13.960938 9.792969 C 14.058594 10.015625 14.15625 10.238281 14.230469 10.457031 L 10.757812 10.457031 C 10.683594 10.679688 10.621094 10.902344 10.574219 11.132812 L 14.414062 11.132812 C 14.503906 11.566406 14.546875 12.011719 14.546875 12.457031 C 14.546875 13.144531 14.4375 13.820312 14.230469 14.445312 L 10.757812 14.445312 C 10.832031 14.667969 10.917969 14.890625 11.015625 15.105469 L 13.960938 15.105469 C 13.847656 15.328125 13.738281 15.5625 13.605469 15.769531 L 11.382812 15.769531 C 11.527344 16 11.6875 16.222656 11.863281 16.429688 L 13.125 16.429688 C 12.929688 16.667969 12.714844 16.890625 12.488281 17.09375 C 13.605469 18.101562 15.078125 18.714844 16.695312 18.714844 C 20.15625 18.714844 22.953125 15.917969 22.953125 12.457031 C 22.953125 8.996094 20.15625 6.1875 16.695312 6.1875 Z M 16.695312 6.1875 "/>
<path style=" stroke:none;fill-rule:evenodd;fill:rgb(80%,12.941176%,19.215686%);fill-opacity:1;" d="M 22.15625 15.941406 C 22.15625 15.832031 22.242188 15.746094 22.351562 15.746094 C 22.460938 15.746094 22.546875 15.832031 22.546875 15.941406 C 22.546875 16.050781 22.460938 16.148438 22.351562 16.148438 C 22.242188 16.148438 22.15625 16.050781 22.15625 15.941406 Z M 22.351562 16.101562 C 22.4375 16.101562 22.511719 16.027344 22.511719 15.941406 C 22.511719 15.855469 22.4375 15.792969 22.351562 15.792969 C 22.265625 15.792969 22.191406 15.855469 22.191406 15.941406 C 22.191406 16.027344 22.265625 16.101562 22.351562 16.101562 Z M 22.328125 16.027344 L 22.277344 16.027344 L 22.277344 15.855469 L 22.351562 15.855469 C 22.375 15.855469 22.386719 15.855469 22.402344 15.867188 C 22.414062 15.867188 22.425781 15.890625 22.425781 15.90625 C 22.425781 15.929688 22.414062 15.941406 22.402344 15.953125 L 22.425781 16.027344 L 22.375 16.027344 L 22.351562 15.964844 L 22.328125 15.964844 Z M 22.328125 15.929688 L 22.375 15.929688 C 22.375 15.929688 22.386719 15.917969 22.386719 15.90625 L 22.375 15.890625 C 22.363281 15.878906 22.351562 15.878906 22.351562 15.878906 L 22.328125 15.878906 Z M 22.328125 15.929688 "/>
<path style=" stroke:none;fill-rule:evenodd;fill:rgb(10.588235%,21.568627%,44.313725%);fill-opacity:1;" d="M 7.3125 14.199219 L 6.527344 14.199219 L 6.992188 11.757812 L 5.925781 14.199219 L 5.261719 14.199219 L 5.125 11.769531 L 4.613281 14.199219 L 3.898438 14.199219 L 4.5 11.023438 L 5.742188 11.023438 L 5.753906 12.984375 L 6.613281 11.023438 L 7.925781 11.023438 Z M 16.019531 14.164062 C 15.800781 14.222656 15.640625 14.25 15.457031 14.25 C 15.0625 14.25 14.84375 14.050781 14.84375 13.683594 C 14.84375 13.609375 14.855469 13.523438 14.867188 13.449219 L 14.917969 13.191406 L 14.953125 12.996094 L 15.308594 11.023438 L 16.082031 11.023438 L 15.972656 11.609375 L 16.363281 11.609375 L 16.265625 12.234375 L 15.859375 12.234375 L 15.652344 13.316406 C 15.652344 13.363281 15.640625 13.402344 15.640625 13.425781 C 15.640625 13.5625 15.726562 13.609375 15.910156 13.609375 C 15.996094 13.609375 16.070312 13.609375 16.117188 13.585938 Z M 12.929688 12.433594 C 12.929688 12.75 13.113281 12.984375 13.519531 13.144531 C 13.847656 13.277344 13.898438 13.316406 13.898438 13.4375 C 13.898438 13.597656 13.75 13.671875 13.445312 13.671875 C 13.199219 13.671875 12.992188 13.636719 12.734375 13.5625 L 12.621094 14.164062 L 12.660156 14.164062 L 12.804688 14.1875 C 12.875 14.203125 12.945312 14.210938 13.015625 14.210938 C 13.199219 14.222656 13.347656 14.234375 13.445312 14.234375 C 14.277344 14.234375 14.660156 13.964844 14.660156 13.378906 C 14.660156 13.023438 14.5 12.8125 14.105469 12.652344 C 13.777344 12.53125 13.738281 12.492188 13.738281 12.371094 C 13.738281 12.234375 13.875 12.164062 14.121094 12.164062 C 14.277344 12.164062 14.488281 12.175781 14.695312 12.199219 L 14.804688 11.609375 C 14.597656 11.574219 14.289062 11.550781 14.105469 11.550781 C 13.222656 11.550781 12.917969 11.953125 12.929688 12.433594 Z M 9.835938 14.199219 L 9.1875 14.199219 L 9.199219 13.929688 C 9.003906 14.136719 8.734375 14.234375 8.378906 14.234375 C 7.960938 14.234375 7.667969 13.953125 7.667969 13.535156 C 7.667969 12.910156 8.167969 12.542969 9.039062 12.542969 C 9.125 12.542969 9.238281 12.542969 9.359375 12.554688 C 9.382812 12.46875 9.382812 12.433594 9.382812 12.394531 C 9.382812 12.222656 9.25 12.152344 8.882812 12.152344 C 8.660156 12.152344 8.414062 12.1875 8.242188 12.222656 L 8.132812 12.261719 L 8.058594 12.273438 L 8.167969 11.695312 C 8.5625 11.585938 8.820312 11.550781 9.101562 11.550781 C 9.777344 11.550781 10.132812 11.820312 10.132812 12.308594 C 10.132812 12.445312 10.121094 12.53125 10.058594 12.824219 L 9.898438 13.734375 L 9.875 13.90625 L 9.851562 14.039062 L 9.835938 14.125 Z M 9.308594 13.046875 C 9.222656 13.035156 9.1875 13.035156 9.125 13.035156 C 8.683594 13.035156 8.464844 13.167969 8.464844 13.425781 C 8.464844 13.585938 8.574219 13.683594 8.746094 13.683594 C 9.066406 13.683594 9.296875 13.425781 9.308594 13.046875 Z M 12.390625 14.136719 C 12.128906 14.210938 11.863281 14.25 11.59375 14.25 C 10.722656 14.25 10.265625 13.84375 10.265625 13.082031 C 10.265625 12.199219 10.84375 11.550781 11.628906 11.550781 C 12.277344 11.550781 12.683594 11.917969 12.683594 12.480469 C 12.683594 12.679688 12.660156 12.863281 12.585938 13.121094 L 11.039062 13.121094 C 11.027344 13.167969 11.027344 13.179688 11.027344 13.207031 C 11.027344 13.5 11.261719 13.660156 11.714844 13.660156 C 11.996094 13.660156 12.242188 13.609375 12.523438 13.488281 Z M 12.023438 12.605469 L 12.023438 12.46875 C 12.023438 12.261719 11.886719 12.136719 11.652344 12.136719 C 11.40625 12.136719 11.222656 12.296875 11.152344 12.605469 Z M 20.707031 13.019531 C 20.597656 13.878906 19.996094 14.261719 19.199219 14.261719 C 18.316406 14.261719 17.960938 13.734375 17.960938 13.070312 C 17.960938 12.164062 18.558594 11.535156 19.492188 11.535156 C 20.300781 11.535156 20.730469 12.050781 20.730469 12.703125 C 20.730469 12.863281 20.730469 12.875 20.707031 13.019531 Z M 19.921875 12.714844 C 19.921875 12.445312 19.8125 12.1875 19.492188 12.1875 C 19.101562 12.1875 18.84375 12.664062 18.84375 13.070312 C 18.84375 13.425781 19.015625 13.660156 19.296875 13.660156 C 19.46875 13.660156 19.824219 13.425781 19.898438 13.019531 C 19.910156 12.933594 19.921875 12.824219 19.921875 12.714844 Z M 19.921875 12.714844 "/>
<path style=" stroke:none;fill-rule:evenodd;fill:rgb(100%,100%,100%);fill-opacity:1;" d="M 20.792969 13.804688 C 20.792969 13.695312 20.890625 13.609375 21 13.609375 C 21.113281 13.609375 21.199219 13.695312 21.199219 13.804688 C 21.199219 13.917969 21.113281 14.015625 21 14.015625 C 20.890625 14.015625 20.792969 13.917969 20.792969 13.804688 Z M 21 13.964844 C 21.085938 13.964844 21.148438 13.890625 21.148438 13.804688 C 21.148438 13.722656 21.085938 13.660156 21 13.660156 C 20.917969 13.660156 20.84375 13.722656 20.84375 13.804688 C 20.84375 13.890625 20.917969 13.964844 21 13.964844 Z M 20.976562 13.890625 L 20.929688 13.890625 L 20.929688 13.71875 L 21 13.71875 C 21.027344 13.71875 21.039062 13.71875 21.050781 13.734375 C 21.0625 13.746094 21.074219 13.757812 21.074219 13.769531 C 21.074219 13.792969 21.0625 13.820312 21.039062 13.820312 L 21.074219 13.890625 L 21.027344 13.890625 L 21 13.832031 L 20.976562 13.832031 Z M 20.976562 13.792969 L 21.027344 13.792969 L 21.027344 13.757812 L 20.976562 13.757812 Z M 7.507812 14.015625 L 6.722656 14.015625 L 7.1875 11.574219 L 6.121094 14.015625 L 5.410156 14.015625 L 5.285156 11.585938 L 4.820312 14.015625 L 4.109375 14.015625 L 4.710938 10.835938 L 5.9375 10.835938 L 5.996094 12.800781 L 6.855469 10.835938 L 8.121094 10.835938 Z M 16.21875 13.976562 C 15.996094 14.039062 15.835938 14.0625 15.652344 14.0625 C 15.261719 14.0625 15.039062 13.867188 15.039062 13.5 C 15.039062 13.425781 15.050781 13.351562 15.0625 13.265625 L 15.113281 13.007812 L 15.148438 12.8125 L 15.503906 10.835938 L 16.277344 10.835938 L 16.167969 11.425781 L 16.574219 11.425781 L 16.460938 12.050781 L 16.058594 12.050781 L 15.859375 13.132812 C 15.847656 13.179688 15.835938 13.21875 15.835938 13.242188 C 15.835938 13.378906 15.921875 13.4375 16.105469 13.4375 C 16.191406 13.4375 16.265625 13.425781 16.316406 13.414062 Z M 16.21875 13.976562 "/>
<path style=" stroke:none;fill-rule:evenodd;fill:rgb(10.588235%,21.568627%,44.313725%);fill-opacity:1;" d="M 18.21875 12.175781 L 18.203125 12.089844 L 18.351562 11.683594 C 18.316406 11.683594 18.304688 11.683594 18.289062 11.671875 C 18.253906 11.671875 18.230469 11.660156 18.230469 11.660156 L 18.15625 11.660156 C 17.898438 11.660156 17.714844 11.769531 17.46875 12.078125 L 17.554688 11.609375 L 16.746094 11.609375 L 16.265625 14.199219 L 17.039062 14.199219 C 17.148438 13.597656 17.199219 13.265625 17.261719 12.984375 C 17.359375 12.519531 17.703125 12.308594 17.960938 12.359375 C 17.984375 12.359375 18.007812 12.359375 18.046875 12.371094 L 18.09375 12.394531 Z M 18.21875 12.175781 "/>
<path style=" stroke:none;fill-rule:evenodd;fill:rgb(100%,100%,100%);fill-opacity:1;" d="M 18.488281 11.449219 C 18.425781 11.425781 18.414062 11.425781 18.402344 11.425781 C 18.363281 11.414062 18.339844 11.414062 18.339844 11.402344 L 18.253906 11.402344 C 17.996094 11.402344 17.8125 11.511719 17.578125 11.820312 L 17.652344 11.425781 L 16.941406 11.425781 L 16.460938 14.015625 L 17.246094 14.015625 C 17.53125 12.433594 17.640625 12.152344 18.019531 12.152344 C 18.046875 12.152344 18.082031 12.164062 18.117188 12.164062 L 18.203125 12.1875 Z M 13.125 12.25 C 13.125 12.566406 13.308594 12.800781 13.726562 12.960938 C 14.046875 13.09375 14.09375 13.132812 14.09375 13.253906 C 14.09375 13.414062 13.949219 13.488281 13.640625 13.488281 C 13.40625 13.488281 13.1875 13.449219 12.929688 13.378906 L 12.832031 13.976562 L 12.867188 13.976562 L 13.003906 14.015625 C 13.050781 14.015625 13.125 14.027344 13.210938 14.027344 C 13.394531 14.050781 13.542969 14.050781 13.652344 14.050781 C 14.476562 14.050781 14.867188 13.78125 14.867188 13.191406 C 14.867188 12.835938 14.707031 12.628906 14.304688 12.46875 C 13.972656 12.347656 13.933594 12.308594 13.933594 12.1875 C 13.933594 12.050781 14.070312 11.980469 14.328125 11.980469 C 14.476562 11.980469 14.695312 11.992188 14.890625 12.015625 L 15.003906 11.425781 C 14.792969 11.390625 14.488281 11.378906 14.316406 11.378906 C 13.433594 11.378906 13.125 11.769531 13.125 12.25 Z M 10.035156 14.015625 L 9.394531 14.015625 L 9.410156 13.746094 C 9.210938 13.953125 8.941406 14.050781 8.585938 14.050781 C 8.167969 14.050781 7.875 13.769531 7.875 13.351562 C 7.875 12.726562 8.378906 12.359375 9.25 12.359375 C 9.335938 12.359375 9.445312 12.359375 9.566406 12.371094 C 9.59375 12.285156 9.59375 12.25 9.59375 12.210938 C 9.59375 12.039062 9.457031 11.980469 9.089844 11.980469 C 8.867188 11.980469 8.625 12.003906 8.453125 12.039062 L 8.339844 12.078125 L 8.269531 12.089844 L 8.378906 11.511719 C 8.769531 11.414062 9.015625 11.378906 9.308594 11.378906 C 9.984375 11.378906 10.328125 11.636719 10.328125 12.125 C 10.328125 12.261719 10.316406 12.359375 10.265625 12.640625 L 10.109375 13.5625 L 10.082031 13.722656 L 10.058594 13.855469 L 10.046875 13.941406 Z M 9.46875 12.863281 C 9.382812 12.851562 9.347656 12.851562 9.296875 12.851562 C 8.855469 12.851562 8.636719 12.984375 8.636719 13.242188 C 8.636719 13.402344 8.734375 13.511719 8.90625 13.511719 C 9.222656 13.511719 9.457031 13.242188 9.46875 12.863281 Z M 12.597656 13.953125 C 12.328125 14.027344 12.070312 14.0625 11.800781 14.0625 C 10.929688 14.0625 10.476562 13.660156 10.476562 12.898438 C 10.476562 12.015625 11.050781 11.367188 11.835938 11.367188 C 12.476562 11.367188 12.878906 11.734375 12.878906 12.296875 C 12.878906 12.492188 12.855469 12.679688 12.792969 12.9375 L 11.238281 12.9375 L 11.238281 13.023438 C 11.238281 13.316406 11.457031 13.476562 11.910156 13.476562 C 12.1875 13.476562 12.464844 13.421875 12.722656 13.316406 Z M 12.179688 12.421875 L 12.179688 12.285156 C 12.179688 12.078125 12.046875 11.953125 11.8125 11.953125 C 11.566406 11.953125 11.394531 12.125 11.320312 12.421875 Z M 20.917969 12.835938 C 20.792969 13.695312 20.191406 14.078125 19.394531 14.078125 C 18.523438 14.078125 18.167969 13.550781 18.167969 12.886719 C 18.167969 11.976562 18.769531 11.351562 19.703125 11.351562 C 20.511719 11.351562 20.941406 11.867188 20.941406 12.519531 C 20.941406 12.679688 20.941406 12.691406 20.917969 12.835938 Z M 20.105469 12.507812 C 20.105469 12.234375 19.996094 11.992188 19.675781 11.992188 C 19.285156 11.992188 19.039062 12.457031 19.039062 12.875 C 19.039062 13.21875 19.210938 13.449219 19.480469 13.449219 C 19.652344 13.449219 20.019531 13.21875 20.082031 12.824219 C 20.105469 12.726562 20.105469 12.617188 20.105469 12.507812 Z M 20.105469 12.507812 "/>
</g>
</svg>
